<svg xmlns="http://www.w3.org/2000/svg" viewBox="0 0 32 32" width="32" height="32" role="img" aria-labelledby="flakehoundIconTitle">
  <title id="flakehoundIconTitle">flakehound</title>
  <rect width="32" height="32" rx="7" fill="#0D1117"/>
  <circle cx="13" cy="13" r="7.5" fill="none" stroke="#F0F6FC" stroke-width="2.2"/>
  <line x1="18.3" y1="18.3" x2="24.5" y2="24.5" stroke="#F0F6FC" stroke-width="2.6" stroke-linecap="round"/>
  <ellipse cx="9" cy="12" rx="2.6" ry="4.6" transform="rotate(-18 9 12)" fill="#F59E0B"/>
  <ellipse cx="17" cy="12" rx="2.6" ry="4.6" transform="rotate(18 17 12)" fill="#F59E0B"/>
  <path fill="#F0F6FC" d="M13 8c3.5 0 5.5 2.5 5 5.5-.3 2-2 3.2-4 3.5-.4 1-.6 1.6-1 1.6s-.6-.6-1-1.6c-2-.3-3.7-1.5-4-3.5-.5-3 1.5-5.5 5-5.5z"/>
  <circle cx="15" cy="12" r="0.9" fill="#F59E0B"/>
</svg>
