<svg xmlns="http://www.w3.org/2000/svg" viewBox="0 0 64 64" width="64" height="64" role="img" aria-labelledby="flakehoundLogoDarkTitle">
  <title id="flakehoundLogoDarkTitle">flakehound</title>
  <circle cx="26" cy="25" r="15" fill="none" stroke="#F0F6FC" stroke-width="4"/>
  <line x1="36.6" y1="35.6" x2="50" y2="49" stroke="#F0F6FC" stroke-width="5.5" stroke-linecap="round"/>
  <path fill="#F59E0B" d="M19 14c-4 2-7 6-7 11 0 5 2 9 5 8 2-1 2-5 1-9 0-4 0-8 1-10z"/>
  <path fill="#F59E0B" d="M33 14c4 2 7 6 7 11 0 5-2 9-5 8-2-1-2-5-1-9 0-4 0-8-1-10z"/>
  <path fill="#F0F6FC" d="M26 11c6 0 10 4 9 10 0 4-2 6-5 7-1 3-2 5-4 5s-3-2-4-5c-3-1-5-3-5-7-1-6 3-10 9-10z"/>
  <circle cx="30" cy="20" r="1.6" fill="#F59E0B"/>
</svg>
